<svg width="209" height="37" viewBox="0 0 209 37" fill="none" xmlns="http://www.w3.org/2000/svg">
<path d="M166.715 8.80078C168.315 8.80078 169.795 9.24014 171.155 10.1201C172.515 10.9735 173.596 12.1607 174.396 13.6807C175.222 15.2006 175.635 16.921 175.635 18.8408C175.635 20.7338 175.222 22.4402 174.396 23.96C173.596 25.4799 172.515 26.6805 171.155 27.5605C169.795 28.4139 168.315 28.8408 166.715 28.8408C165.728 28.8408 164.795 28.6937 163.915 28.4004C163.035 28.0804 162.288 27.6935 161.675 27.2402C161.088 26.7871 160.622 26.3072 160.275 25.8008H160.235V36.8408H155.715V9.2002H160.155V11.8408H160.235C160.555 11.3342 161.022 10.8537 161.635 10.4004C162.275 9.94707 163.035 9.5736 163.915 9.28027C164.795 8.96031 165.728 8.80081 166.715 8.80078ZM96.5283 0C97.8349 3.10331e-05 99.0614 0.173872 100.208 0.520508C101.381 0.867171 102.408 1.32087 103.288 1.88086C104.195 2.41414 104.942 2.97394 105.528 3.56055L102.448 6.80078C101.968 6.40078 101.434 6.02733 100.848 5.68066C100.261 5.30736 99.5943 5.00073 98.8477 4.76074C98.1012 4.52082 97.3281 4.40043 96.5283 4.40039C95.4883 4.40039 94.5943 4.56086 93.8477 4.88086C93.128 5.2008 92.5813 5.62702 92.208 6.16016C91.8347 6.69349 91.6484 7.2809 91.6484 7.9209C91.6485 8.72069 91.8883 9.37429 92.3682 9.88086C92.8748 10.3607 93.5016 10.7601 94.248 11.0801C95.0214 11.3734 96.0615 11.6934 97.3682 12.04C99.2614 12.6 100.794 13.1473 101.968 13.6807C103.141 14.1873 104.155 15.0003 105.008 16.1201C105.861 17.2401 106.288 18.7205 106.288 20.5605C106.288 22.0538 105.874 23.4407 105.048 24.7207C104.221 25.9739 103.035 26.9875 101.488 27.7607C99.9416 28.5074 98.1279 28.8809 96.0479 28.8809C94.5012 28.8808 93.0608 28.6936 91.7275 28.3203C90.3945 27.9204 89.2346 27.414 88.248 26.8008C87.2614 26.1608 86.4476 25.4807 85.8076 24.7607L88.8877 21.4805C89.7677 22.3604 90.7811 23.0806 91.9277 23.6406C93.101 24.1739 94.4612 24.4404 96.0078 24.4404C97.1009 24.4404 98.0477 24.2674 98.8477 23.9209C99.6477 23.5476 100.248 23.0671 100.648 22.4805C101.075 21.8939 101.288 21.2538 101.288 20.5605C101.288 19.7607 101.035 19.1206 100.528 18.6406C100.048 18.134 99.4216 17.7337 98.6484 17.4404C97.9018 17.1205 96.8749 16.7871 95.5684 16.4404C93.675 15.8804 92.1411 15.3341 90.9678 14.8008C89.7944 14.2674 88.7811 13.4537 87.9277 12.3604C87.0746 11.2405 86.6485 9.76059 86.6484 7.9209C86.6484 6.4809 87.0343 5.15996 87.8076 3.95996C88.6076 2.76004 89.7548 1.80005 91.248 1.08008C92.7413 0.360142 94.5017 0 96.5283 0ZM31.4395 8.80078C33.0659 8.80081 34.4922 9.12086 35.7188 9.76074C36.9721 10.4007 37.9329 11.3071 38.5996 12.4805C39.2928 13.6271 39.6396 14.9071 39.6396 16.3203V28.4404H35.4395V25.7607H35.3594C35.0394 26.2407 34.5723 26.7202 33.959 27.2002C33.3723 27.6535 32.6521 28.0404 31.7988 28.3604C30.9722 28.6803 30.079 28.8408 29.1191 28.8408C27.8925 28.8408 26.7855 28.5867 25.7988 28.0801C24.8124 27.5734 24.0528 26.8932 23.5195 26.04C22.9863 25.1601 22.7188 24.2268 22.7188 23.2402C22.7188 21.6403 23.2393 20.3069 24.2793 19.2402C25.3459 18.1471 26.8257 17.4401 28.7188 17.1201L35.2383 16.0381C35.2378 15.4257 35.065 14.8664 34.7188 14.3604C34.3988 13.8271 33.9459 13.4134 33.3594 13.1201C32.7728 12.8001 32.106 12.6406 31.3594 12.6406C30.3195 12.6406 29.3995 12.8671 28.5996 13.3203C27.8264 13.7736 27.0793 14.3736 26.3594 15.1201L23.7188 12.3604C24.652 11.3204 25.7592 10.4674 27.0391 9.80078C28.3191 9.13411 29.7861 8.80078 31.4395 8.80078ZM60.6562 0C62.3362 0 63.8301 0.360133 65.1367 1.08008C66.4433 1.77335 67.4568 2.73345 68.1768 3.95996C68.8967 5.18655 69.2568 6.57358 69.2568 8.12012V9.24023H73.7764V13.3604H69.2568V21.4805C69.2568 22.4671 69.4832 23.214 69.9365 23.7207C70.4165 24.2007 71.11 24.4404 72.0166 24.4404C72.4166 24.4404 72.8034 24.3869 73.1768 24.2803C73.55 24.1736 73.8701 24.0408 74.1367 23.8809V28.04C73.7901 28.2267 73.3364 28.3738 72.7764 28.4805C72.2431 28.5871 71.6698 28.6406 71.0566 28.6406C69.03 28.6406 67.4703 28.0799 66.377 26.96C65.2837 25.8133 64.7363 24.1599 64.7363 22V13.3604H61.2969V9.24023H62.8564C63.4963 9.24023 63.9635 9.10741 64.2568 8.84082C64.5768 8.54752 64.7363 8.1472 64.7363 7.64062V7.52051C64.7363 6.90731 64.5767 6.3474 64.2568 5.84082C63.9368 5.30749 63.4698 4.89392 62.8564 4.60059C62.2431 4.28064 61.5363 4.12012 60.7363 4.12012C59.9099 4.12017 59.1903 4.28073 58.5771 4.60059C57.9638 4.89392 57.4968 5.32086 57.1768 5.88086C56.8569 6.41412 56.6963 7.0275 56.6963 7.7207C56.6963 8.41393 56.8568 9.06741 57.1768 9.68066C57.4967 10.2939 57.9238 10.8671 58.457 11.4004L55.8164 14.2002C55.3898 13.8003 54.7764 13.44 53.9766 13.1201C53.2034 12.8002 52.3902 12.6407 51.5371 12.6406C50.9504 12.6406 50.4433 12.7342 50.0166 12.9209C49.5901 13.0809 49.2699 13.3073 49.0566 13.6006C48.8434 13.8672 48.7363 14.1605 48.7363 14.4805C48.7363 14.8805 48.8834 15.2138 49.1768 15.4805C49.4967 15.7471 49.8836 15.9735 50.3369 16.1602C50.7902 16.3202 51.4436 16.5208 52.2969 16.7607C53.6301 17.1607 54.7239 17.56 55.5771 17.96C56.4571 18.36 57.2165 18.9608 57.8564 19.7607C58.4964 20.5341 58.8164 21.5475 58.8164 22.8008C58.8163 23.894 58.5098 24.9076 57.8965 25.8408C57.3099 26.7472 56.4432 27.4801 55.2969 28.04C54.1502 28.5734 52.8035 28.8408 51.2568 28.8408C50.0568 28.8408 48.9365 28.6804 47.8965 28.3604C46.8832 28.0137 45.9901 27.5733 45.2168 27.04C44.4436 26.4801 43.8436 25.9203 43.417 25.3604L46.0166 22.4805C46.6299 23.1471 47.3768 23.7336 48.2568 24.2402C49.1635 24.7469 50.1234 25 51.1367 25C52.1501 25 52.9371 24.787 53.4971 24.3604C54.0568 23.9071 54.3368 23.3739 54.3369 22.7607C54.3369 22.3607 54.1764 22.0408 53.8564 21.8008C53.5631 21.5341 53.1897 21.3068 52.7363 21.1201C52.283 20.9335 51.6294 20.7204 50.7764 20.4805C49.4433 20.0805 48.3369 19.6802 47.457 19.2803C46.5771 18.8803 45.8167 18.2938 45.1768 17.5205C44.5368 16.7205 44.2168 15.6938 44.2168 14.4404C44.2168 13.4272 44.4967 12.4939 45.0566 11.6406C45.6433 10.7606 46.4838 10.0672 47.5771 9.56055C48.6704 9.05398 49.9638 8.80078 51.457 8.80078C51.9187 8.80079 52.3166 8.8294 52.6514 8.88379C52.4955 8.34166 52.417 7.7136 52.417 7C52.4171 5.74683 52.7504 4.58705 53.417 3.52051C54.1103 2.42721 55.0836 1.57328 56.3369 0.959961C57.6167 0.320138 59.0566 6.26431e-05 60.6562 0ZM198.811 8.80078C200.65 8.80084 202.291 9.21343 203.73 10.04C205.17 10.84 206.303 11.9605 207.13 13.4004C207.957 14.8403 208.37 16.4536 208.37 18.2402C208.37 18.6402 208.343 19.0271 208.29 19.4004C208.263 19.7737 208.223 20.0669 208.17 20.2803H193.57C193.704 21.1336 194.037 21.9073 194.57 22.6006C195.104 23.2672 195.797 23.8002 196.65 24.2002C197.504 24.6002 198.424 24.8008 199.41 24.8008C200.503 24.8008 201.477 24.6002 202.33 24.2002C203.21 23.8002 204.01 23.2672 204.73 22.6006L207.29 25.4404C206.543 26.3471 205.463 27.1475 204.05 27.8408C202.637 28.5073 200.996 28.8408 199.13 28.8408C197.237 28.8408 195.503 28.4005 193.93 27.5205C192.383 26.6406 191.157 25.4407 190.25 23.9209C189.37 22.3743 188.93 20.6807 188.93 18.8408C188.93 16.9743 189.37 15.2807 190.25 13.7607C191.13 12.2407 192.331 11.0402 193.851 10.1602C195.37 9.25366 197.024 8.80078 198.811 8.80078ZM11.4404 0.44043C13.2537 0.440471 14.8938 0.854038 16.3604 1.68066C17.8534 2.48055 18.9999 3.57361 19.7998 4.95996C20.6265 6.34663 21.04 7.88055 21.04 9.56055C21.04 11.2672 20.6264 12.8136 19.7998 14.2002C18.9998 15.5868 17.8536 16.6938 16.3604 17.5205C14.8938 18.3205 13.2537 18.7207 11.4404 18.7207H5V28.4404H0V0.44043H11.4404ZM115.513 28.4404H111.032V9.2002H115.513V28.4404ZM143.587 8.80078C144.867 8.80081 146.026 9.13417 147.066 9.80078C148.133 10.4674 148.974 11.4273 149.587 12.6807C150.227 13.9072 150.547 15.3336 150.547 16.96V28.4404H146.026V17.1201C146.026 16.2671 145.853 15.5341 145.507 14.9209C145.187 14.3076 144.747 13.8405 144.187 13.5205C143.627 13.1739 143 13 142.307 13C141.48 13 140.746 13.2006 140.106 13.6006C139.467 14.0005 138.96 14.5738 138.587 15.3203C138.214 16.0403 138.026 16.8942 138.026 17.8809V28.4404H133.587V17.1201C133.587 16.267 133.413 15.5341 133.066 14.9209C132.746 14.3077 132.307 13.8405 131.747 13.5205C131.187 13.1739 130.56 13.0001 129.867 13C129.041 13 128.307 13.2006 127.667 13.6006C127.027 14.0006 126.52 14.5736 126.146 15.3203C125.773 16.0403 125.587 16.8942 125.587 17.8809V28.4404H121.066V9.2002H125.507V11.8809H125.587C126.014 11.0809 126.72 10.3741 127.707 9.76074C128.694 9.12081 129.84 8.80082 131.146 8.80078C132.08 8.80078 132.934 8.96027 133.707 9.28027C134.507 9.60026 135.187 10.0005 135.747 10.4805C136.307 10.9337 136.72 11.4143 136.986 11.9209H137.066C137.36 11.4142 137.8 10.9338 138.387 10.4805C139 10.0005 139.747 9.60027 140.627 9.28027C141.507 8.96034 142.494 8.80078 143.587 8.80078ZM184.537 28.4404H180.017V0.44043H184.537V28.4404ZM29.999 20.2402C29.0924 20.4269 28.3855 20.7469 27.8789 21.2002C27.3989 21.6269 27.1592 22.1341 27.1592 22.7207C27.1592 23.1739 27.2797 23.5868 27.5195 23.96C27.7595 24.3066 28.1062 24.6008 28.5596 24.8408C29.0128 25.054 29.5461 25.1602 30.1592 25.1602C31.0658 25.1602 31.9064 24.9338 32.6797 24.4805C33.4529 24.0005 34.0663 23.3738 34.5195 22.6006C34.9728 21.8007 35.1991 20.9074 35.1992 19.9209V19.3047L29.999 20.2402ZM165.675 12.9209C164.662 12.921 163.742 13.1741 162.915 13.6807C162.115 14.1873 161.462 14.8942 160.955 15.8008C160.475 16.6807 160.235 17.6943 160.235 18.8408C160.235 19.9607 160.475 20.9743 160.955 21.8809C161.462 22.7606 162.115 23.4534 162.915 23.96C163.742 24.4666 164.662 24.7206 165.675 24.7207C166.688 24.7207 167.596 24.4666 168.396 23.96C169.222 23.4534 169.876 22.7606 170.355 21.8809C170.862 20.9743 171.115 19.9607 171.115 18.8408C171.115 17.6943 170.862 16.6807 170.355 15.8008C169.876 14.8942 169.222 14.1873 168.396 13.6807C167.596 13.174 166.688 12.9209 165.675 12.9209ZM198.851 12.6406C197.917 12.6406 197.077 12.8269 196.33 13.2002C195.61 13.5469 195.01 14.054 194.53 14.7207C194.077 15.3606 193.73 16.1202 193.49 17H203.811C203.624 16.1203 203.304 15.3605 202.851 14.7207C202.424 14.054 201.863 13.5469 201.17 13.2002C200.503 12.827 199.73 12.6407 198.851 12.6406ZM4.95996 14.3604H11.3203C12.1734 14.3603 12.9599 14.1472 13.6797 13.7207C14.4264 13.294 15.0138 12.72 15.4404 12C15.8669 11.2535 16.0801 10.4403 16.0801 9.56055C16.0801 8.70721 15.8671 7.9202 15.4404 7.2002C15.0138 6.45356 14.4263 5.86709 13.6797 5.44043C12.9598 5.01393 12.1734 4.80081 11.3203 4.80078H4.95996V14.3604ZM113.312 0.640625C114.006 0.640663 114.619 0.893774 115.152 1.40039C115.686 1.88034 115.952 2.4803 115.952 3.2002C115.952 3.68015 115.819 4.12054 115.553 4.52051C115.313 4.89374 114.993 5.20046 114.593 5.44043C114.193 5.65374 113.766 5.76072 113.312 5.76074C112.619 5.76074 112.006 5.52004 111.473 5.04004C110.939 4.53338 110.672 3.92018 110.672 3.2002C110.672 2.72046 110.792 2.29408 111.032 1.9209C111.272 1.5209 111.592 1.21333 111.992 1C112.419 0.760024 112.859 0.640625 113.312 0.640625Z" fill="#B697FF"/>
</svg>
